<svg width="15" height="14" viewBox="0 0 15 14" fill="none" xmlns="http://www.w3.org/2000/svg">
<path fill-rule="evenodd" clip-rule="evenodd" d="M6.94835 1.12651C6.9944 0.98048 7.08581 0.852934 7.20929 0.762397C7.33277 0.67186 7.4819 0.623047 7.63502 0.623047C7.78814 0.623047 7.93727 0.67186 8.06075 0.762397C8.18423 0.852934 8.27564 0.98048 8.32169 1.12651L9.56169 4.93984H13.5617C13.7203 4.93384 13.8765 4.97993 14.0064 5.07107C14.1363 5.1622 14.2329 5.29336 14.2812 5.44452C14.3296 5.59567 14.3272 5.75851 14.2743 5.90814C14.2214 6.05778 14.121 6.18599 13.9884 6.27317L10.7417 8.62651L11.9817 12.4465C12.0307 12.592 12.032 12.7494 11.9852 12.8957C11.9385 13.0419 11.8462 13.1694 11.7218 13.2595C11.5975 13.3496 11.4476 13.3976 11.2941 13.3964C11.1405 13.3953 10.9913 13.3451 10.8684 13.2532L7.61502 10.8732L4.36835 13.2332C4.24536 13.3251 4.0962 13.3753 3.94265 13.3764C3.7891 13.3776 3.63921 13.3296 3.51487 13.2395C3.39052 13.1494 3.29824 13.0219 3.25149 12.8757C3.20474 12.7294 3.20598 12.572 3.25502 12.4265L4.49502 8.60651L1.24835 6.25317C1.11574 6.16599 1.01532 6.03778 0.962434 5.88814C0.909546 5.73851 0.9071 5.57567 0.95547 5.42452C1.00384 5.27336 1.10037 5.1422 1.2303 5.05107C1.36023 4.95993 1.51643 4.91385 1.67502 4.91984H5.67502L6.94835 1.12651Z" fill="#FDBC15"/>
</svg>
