<svg width="18" height="16" viewBox="0 0 18 16" fill="none" xmlns="http://www.w3.org/2000/svg">
<path fill-rule="evenodd" clip-rule="evenodd" d="M8.42397 0.658136C8.48153 0.4756 8.59578 0.316168 8.75014 0.202997C8.90449 0.0898255 9.0909 0.0288086 9.2823 0.0288086C9.4737 0.0288086 9.66011 0.0898255 9.81446 0.202997C9.96882 0.316168 10.0831 0.4756 10.1406 0.658136L11.6906 5.4248H16.6906C16.8889 5.41731 17.0841 5.47492 17.2465 5.58883C17.409 5.70275 17.5296 5.8667 17.5901 6.05565C17.6505 6.24459 17.6475 6.44814 17.5814 6.63518C17.5153 6.82222 17.3897 6.98248 17.224 7.09147L13.1656 10.0331L14.7156 14.8081C14.7769 14.99 14.7785 15.1867 14.72 15.3696C14.6616 15.5524 14.5463 15.7118 14.3908 15.8244C14.2354 15.937 14.048 15.997 13.8561 15.9955C13.6642 15.9941 13.4777 15.9314 13.324 15.8165L9.2573 12.8415L5.19897 15.7915C5.04522 15.9064 4.85877 15.9691 4.66684 15.9705C4.4749 15.972 4.28754 15.912 4.13211 15.7994C3.97668 15.6868 3.86133 15.5274 3.80289 15.3446C3.74445 15.1617 3.746 14.965 3.8073 14.7831L5.3573 10.0081L1.29897 7.06647C1.1332 6.95748 1.00768 6.79722 0.941567 6.61018C0.875458 6.42314 0.872401 6.21959 0.932863 6.03065C0.993325 5.8417 1.11398 5.67775 1.2764 5.56383C1.43881 5.44992 1.63406 5.39231 1.8323 5.3998H6.8323L8.42397 0.658136Z" fill="#151515"/>
</svg>
